<svg width="102" height="197" viewBox="0 0 102 197" fill="none" xmlns="http://www.w3.org/2000/svg">
<path d="M57.5936 128.463L57.5936 188.494C57.5724 190.599 56.9233 192.61 55.7858 194.098C54.6474 195.587 53.1094 196.435 51.4998 196.463H6.97473C5.35859 196.463 3.80858 195.623 2.6658 194.129C1.52302 192.634 0.880981 190.607 0.880981 188.494L0.880981 128.463C0.880981 126.349 1.52302 124.322 2.6658 122.828C3.80858 121.333 5.35859 120.494 6.97473 120.494L51.4998 120.494C53.1094 120.521 54.6474 121.37 55.7858 122.858C56.9233 124.347 57.5724 126.358 57.5936 128.463ZM45.4061 180.525L45.4061 136.431H12.906L12.906 180.525H45.4061Z" fill="black"/>
<path d="M57.5937 68.5375L57.5937 128.463C57.5937 130.576 56.9519 132.603 55.8087 134.097C54.6663 135.592 53.1161 136.431 51.5 136.431H6.97499C6.17167 136.446 5.37436 136.249 4.63011 135.854C3.88586 135.458 3.2097 134.872 2.64168 134.129C2.07366 133.386 1.62516 132.502 1.32283 131.529C1.02042 130.556 0.870268 129.513 0.881237 128.463L0.881237 68.5375C0.870268 67.4867 1.02042 66.4444 1.32283 65.4712C1.62516 64.4979 2.07366 63.6139 2.64168 62.8712C3.2097 62.1285 3.88586 61.542 4.63011 61.1468C5.37436 60.7505 6.17167 60.555 6.97499 60.5688L51.5 60.5688C53.1161 60.5688 54.6663 61.4082 55.8087 62.9031C56.9519 64.397 57.5937 66.4242 57.5937 68.5375ZM45.4062 120.494L45.4062 76.5063H12.9062L12.9062 120.494H45.4062Z" fill="black"/>
<path d="M57.5937 8.5063L57.5937 68.5375C57.5726 70.6423 56.9234 72.6537 55.7859 74.1422C54.6476 75.6308 53.1096 76.4787 51.5 76.5063L6.97491 76.5063C5.35877 76.5063 3.80876 75.6669 2.66598 74.172C1.5232 72.6781 0.881165 70.6508 0.881165 68.5375L0.881165 8.5063C0.881165 6.39298 1.5232 4.36573 2.66598 2.87186C3.80876 1.37692 5.35877 0.537547 6.97491 0.537547L51.5 0.537547C53.1096 0.565172 54.6476 1.41305 55.7859 2.90161C56.9234 4.39017 57.5726 6.40148 57.5937 8.5063ZM45.4062 60.5688L45.4062 16.475L12.9062 16.475L12.9062 60.5688L45.4062 60.5688Z" fill="black"/>
<path d="M101.464 68.8736V68.8787L101.464 128.121L101.464 128.126C101.474 129.114 101.332 130.092 101.045 131.002L101.044 131.003C100.758 131.913 100.335 132.733 99.8046 133.417C99.2748 134.101 98.6513 134.631 97.9753 134.986C97.3001 135.339 96.5838 135.512 95.8663 135.499V135.499H95.8575H51.2374C49.7975 135.499 48.3813 134.762 47.3147 133.386L47.3146 133.385C46.245 132.006 45.6306 130.114 45.6306 128.121L45.6306 68.8787C45.6306 66.8865 46.245 64.9937 47.3146 63.6149L47.3148 63.6146C48.3813 62.2377 49.7975 61.5007 51.2374 61.5007L95.8575 61.5007L95.866 61.5006C96.5841 61.4884 97.3003 61.6604 97.9749 62.0147L97.9754 62.015C98.6513 62.3691 99.2748 62.8997 99.8047 63.5832C100.335 64.2668 100.758 65.0869 101.044 65.9974L101.045 65.9977C101.332 66.9077 101.474 67.8855 101.464 68.8736ZM89.7508 120.743H90.2508V120.243V76.7567V76.2567H89.7508H57.1813H56.6813V76.7567L56.6813 120.243V120.743H57.1813H89.7508Z" fill="black" stroke="black"/>
</svg>
