<svg width="96" height="195" viewBox="0 0 96 195" fill="none" xmlns="http://www.w3.org/2000/svg">
<path d="M43.3493 67.679L43.3493 7.93113C43.3688 5.83615 43.9687 3.83475 45.0198 2.35322C46.0716 0.871791 47.4928 0.0273888 48.98 0L90.1218 0C91.6151 0 93.0473 0.835624 94.1033 2.32298C95.1592 3.81033 95.7525 5.82769 95.7525 7.93113V67.679C95.7525 69.7824 95.1592 71.7998 94.1033 73.2871C93.0473 74.7745 91.6151 75.6101 90.1218 75.6101H48.98C47.4928 75.5827 46.0716 74.7383 45.0198 73.2569C43.9687 71.7753 43.3688 69.7739 43.3493 67.679ZM54.6107 15.8623L54.6107 59.7478H84.6412V15.8623L54.6107 15.8623Z" fill="black"/>
<path d="M43.3491 127.321L43.3491 67.6789C43.3491 65.5755 43.9422 63.5581 44.9986 62.0708C46.0541 60.5834 47.4866 59.7478 48.9798 59.7478L90.1215 59.7478C90.8638 59.7335 91.6005 59.9291 92.2882 60.3225C92.9759 60.716 93.6007 61.2998 94.1256 62.039C94.6504 62.7784 95.0648 63.6584 95.3442 64.627C95.6236 65.5957 95.7624 66.6335 95.7522 67.6789V127.321C95.7624 128.367 95.6236 129.404 95.3442 130.373C95.0648 131.342 94.6504 132.221 94.1256 132.961C93.6007 133.7 92.9759 134.283 92.2882 134.677C91.6005 135.071 90.8638 135.266 90.1215 135.252H48.9798C47.4866 135.252 46.0541 134.417 44.9986 132.929C43.9422 131.442 43.3491 129.424 43.3491 127.321ZM54.6106 75.6101L54.6106 119.39H84.641V75.6101H54.6106Z" fill="black"/>
<path d="M43.3491 187.069L43.3491 127.321C43.3687 125.226 43.9685 123.224 45.0196 121.743C46.0714 120.261 47.4926 119.417 48.9799 119.39H90.1216C91.6149 119.39 93.0472 120.225 94.1031 121.713C95.1591 123.2 95.7523 125.218 95.7523 127.321V187.069C95.7523 189.172 95.1591 191.19 94.1031 192.677C93.0472 194.165 91.6149 195 90.1216 195H48.9799C47.4926 194.972 46.0714 194.129 45.0196 192.647C43.9685 191.166 43.3687 189.164 43.3491 187.069ZM54.6106 135.252L54.6106 179.138H84.641V135.252H54.6106Z" fill="black"/>
<path d="M0.500488 187.012V187.007L0.500511 127.365L0.500465 127.361C0.491138 126.362 0.623268 125.372 0.889229 124.452L0.889328 124.452C1.15474 123.531 1.54626 122.704 2.0351 122.015C2.52396 121.326 3.09663 120.795 3.71281 120.443C4.32761 120.091 4.97562 119.922 5.62158 119.934V119.934H5.63119H46.7729C48.0675 119.934 49.3612 120.658 50.3464 122.046L50.3465 122.047C51.3338 123.437 51.9036 125.349 51.9036 127.365L51.9036 187.007C51.9036 189.023 51.3338 190.936 50.3465 192.326L50.3463 192.326C49.3612 193.715 48.0675 194.438 46.7729 194.438L5.63119 194.438L5.62194 194.439C4.97535 194.451 4.32743 194.282 3.71326 193.929L3.71276 193.929C3.09662 193.577 2.52395 193.046 2.03508 192.357C1.54626 191.669 1.15475 190.841 0.889328 189.921L0.889229 189.92C0.623264 189 0.491138 188.011 0.500488 187.012ZM11.2619 134.796H10.7619V135.296L10.7619 179.076V179.576H11.2619H41.2923H41.7923V179.076V135.296V134.796H41.2923H11.2619Z" fill="black" stroke="black"/>
<path d="M0.500488 67.5786V67.5739L0.500511 7.93186L0.500465 7.92719C0.491138 6.92813 0.623268 5.9388 0.889229 5.01882L0.889328 5.01848C1.15474 4.09792 1.54626 3.27016 2.0351 2.5814C2.52396 1.89273 3.09663 1.36202 3.71281 1.00945C4.32761 0.657666 4.97562 0.488217 5.62158 0.500637V0.500729H5.63119L46.7729 0.500729C48.0675 0.500729 49.3612 1.22487 50.3464 2.61308L50.3465 2.61321C51.3338 4.00346 51.9036 5.91568 51.9036 7.93186L51.9036 67.5739C51.9036 69.59 51.3338 71.5025 50.3465 72.8922L50.3463 72.8925C49.3612 74.2811 48.0675 75.0051 46.7729 75.0051L5.63119 75.005L5.62194 75.0051C4.97535 75.0171 4.32743 74.8484 3.71326 74.4961L3.71276 74.4958C3.09662 74.1433 2.52395 73.6126 2.03508 72.9241C1.54626 72.2355 1.15475 71.4079 0.889328 70.4873L0.889229 70.487C0.623264 69.567 0.491138 68.5781 0.500488 67.5786ZM11.2619 15.363H10.7619V15.863L10.7619 59.6428V60.1428H11.2619H41.2923H41.7923V59.6428V15.863V15.363H41.2923L11.2619 15.363Z" fill="black" stroke="black"/>
</svg>
