<svg width="106" height="195" viewBox="0 0 106 195" fill="none" xmlns="http://www.w3.org/2000/svg">
<path d="M47.8765 67.679L47.8765 7.93113C47.8981 5.83615 48.5606 3.83475 49.7214 2.35322C50.8831 0.871791 52.4527 0.0273888 54.0953 0L99.5337 0C101.183 0 102.765 0.835624 103.931 2.32298C105.097 3.81033 105.752 5.82769 105.752 7.93113V67.679C105.752 69.7824 105.097 71.7998 103.931 73.2871C102.765 74.7745 101.183 75.6101 99.5337 75.6101H54.0953C52.4527 75.5827 50.8831 74.7383 49.7214 73.2569C48.5606 71.7753 47.8981 69.7739 47.8765 67.679ZM60.314 15.8623L60.314 59.7478H93.4808V15.8623L60.314 15.8623Z" fill="black"/>
<path d="M47.8763 127.321L47.8763 67.679C47.8763 65.5755 48.5314 63.5582 49.698 62.0708C50.8638 60.5835 52.4459 59.7479 54.0951 59.7479L99.5334 59.7479C100.353 59.7336 101.167 59.9291 101.926 60.3226C102.686 60.7161 103.376 61.2998 103.956 62.0391C104.535 62.7785 104.993 63.6584 105.302 64.6271C105.61 65.5957 105.763 66.6336 105.752 67.679V127.321C105.763 128.367 105.61 129.404 105.302 130.373C104.993 131.342 104.535 132.221 103.956 132.961C103.376 133.7 102.686 134.284 101.926 134.677C101.167 135.071 100.353 135.266 99.5334 135.252H54.0951C52.4459 135.252 50.8638 134.417 49.698 132.929C48.5314 131.442 47.8763 129.424 47.8763 127.321ZM60.3138 75.6101L60.3138 119.39H93.4805V75.6101H60.3138Z" fill="black"/>
<path d="M47.8763 187.069L47.8763 127.321C47.8979 125.226 48.5604 123.224 49.7212 121.743C50.8829 120.261 52.4525 119.417 54.0951 119.39H99.5335C101.183 119.39 102.765 120.225 103.931 121.713C105.097 123.2 105.752 125.218 105.752 127.321V187.069C105.752 189.172 105.097 191.19 103.931 192.677C102.765 194.165 101.183 195 99.5335 195H54.0951C52.4525 194.972 50.8829 194.129 49.7212 192.647C48.5604 191.166 47.8979 189.164 47.8763 187.069ZM60.3138 135.252L60.3138 179.138H93.4806V135.252H60.3138Z" fill="black"/>
<path d="M0.500534 187.013V187.007L0.500561 127.365L0.500507 127.36C0.490257 126.366 0.635429 125.382 0.927906 124.466L0.928024 124.465C1.21986 123.549 1.65089 122.723 2.19085 122.034C2.73067 121.345 3.36642 120.81 4.0563 120.453C4.7455 120.096 5.47723 119.921 6.21058 119.934V119.934H6.21928H51.6576C53.1295 119.934 54.5745 120.679 55.6612 122.066L55.6613 122.066C56.751 123.455 57.3764 125.36 57.3764 127.365L57.3764 187.007C57.3764 189.012 56.751 190.918 55.6613 192.307L55.6611 192.307C54.5745 193.694 53.1296 194.439 51.6576 194.439L6.21928 194.438L6.2109 194.439C5.47697 194.451 4.74534 194.277 4.05674 193.92L4.05626 193.919C3.36639 193.562 2.73064 193.027 2.1908 192.338C1.65088 191.65 1.21986 190.824 0.928024 189.908L0.927906 189.907C0.635426 188.991 0.490257 188.007 0.500534 187.013ZM12.438 134.796H11.938V135.296L11.938 179.076V179.576H12.438H45.6047H46.1047V179.076V135.296V134.796H45.6047H12.438Z" fill="black" stroke="black"/>
</svg>
